name analog
datacolumns 19
datarows 38
range 0.483 0.5015000000000001
endheader
time	ground_force_vx	ground_force_vy	ground_force_vz	ground_force_px	ground_force_py	ground_force_pz	l_ground_force_vx	l_ground_force_vy	l_ground_force_vz	l_ground_force_px	l_ground_force_py	l_ground_force_pz	ground_torque_x	ground_torque_y	ground_torque_z	l_ground_torque_x	l_ground_torque_y	l_ground_torque_z
0.483	-0.0	-0.0	-0.0	0.7682539820671082	5.591509819030762	-104.9301300048828	1.0218112468719482	-51.30427169799805	-516.6603393554688	-0.0	-0.0	-0.0	-0.0	-0.0	-0.0	166409.140625	6086.28515625	-1903.660888671875
0.4835	-0.0	-0.0	-0.0	2.152005910873413	4.445576190948486	-93.859130859375	-0.3899587988853454	-52.43106460571289	-532.6366577148438	-0.0	-0.0	-0.0	-0.0	-0.0	-0.0	170977.546875	6389.2978515625	-2393.88671875
0.484	-0.0	-0.0	-0.0	2.7655258178710938	1.5030783414840698	-85.25162506103516	-1.696278691291809	-53.865501403808594	-546.8661499023438	-0.0	-0.0	-0.0	-0.0	-0.0	-0.0	175880.1875	7069.81640625	-2944.4228515625
0.4845	-0.0	-0.0	-0.0	4.03719425201416	1.036349892616272	-73.37147521972656	-3.316778898239136	-55.06760787963867	-562.006103515625	-0.0	-0.0	-0.0	-0.0	-0.0	-0.0	180430.078125	7704.63720703125	-3382.889892578125
0.485	-0.0	-0.0	-0.0	4.38243579864502	-0.947101593017578	-65.42633819580078	-4.192805290222168	-56.46085357666016	-575.7509765625	-0.0	-0.0	-0.0	-0.0	-0.0	-0.0	185178.3125	7672.716796875	-3836.704345703125
0.4855	-0.0	-0.0	-0.0	4.906578063964844	-2.506730556488037	-53.81589889526367	-4.102544784545898	-57.089752197265625	-589.02392578125	-0.0	-0.0	-0.0	-0.0	-0.0	-0.0	189423.125	8212.732421875	-3929.41845703125
0.486	-0.0	-0.0	-0.0	5.720051765441895	-3.3532865047454834	-47.14822769165039	-3.736849784851074	-57.82807540893555	-601.0197143554688	-0.0	-0.0	-0.0	-0.0	-0.0	-0.0	193763.21875	8220.9052734375	-3914.366943359375
0.4865	-0.0	-0.0	-0.0	5.8878936767578125	-4.679892063140869	-39.202972412109375	-3.4265661239624023	-58.52427291870117	-615.423828125	-0.0	-0.0	-0.0	-0.0	-0.0	-0.0	197780.921875	8518.1611328125	-3766.057373046875
0.487	-0.0	-0.0	-0.0	5.642983913421631	-5.505058288574219	-32.66582489013672	-3.193869113922119	-59.330020904541016	-627.380615234375	-0.0	-0.0	-0.0	-0.0	-0.0	-0.0	201563.734375	8432.3095703125	-3932.99462890625
0.4875	-0.0	-0.0	-0.0	5.510242462158203	-6.940781116485596	-26.488494873046875	-4.369154930114746	-59.66100311279297	-637.5069580078125	-0.0	-0.0	-0.0	-0.0	-0.0	-0.0	205071.484375	8820.681640625	-4286.14990234375
0.488	-0.0	-0.0	-0.0	5.1742095947265625	-7.800124645233154	-21.589326858520508	-5.6326189041137695	-59.71662902832031	-647.6280517578125	-0.0	-0.0	-0.0	-0.0	-0.0	-0.0	208176.046875	9218.7666015625	-4561.5234375
0.4885	-0.0	-0.0	-0.0	-0.0	-0.0	-0.0	-6.421047210693359	-60.18079376220703	-653.65625	-0.0	-0.0	-0.0	-0.0	-0.0	-0.0	210854.8125	9271.890625	-4936.5322265625
0.489	-0.0	-0.0	-0.0	-0.0	-0.0	-0.0	-7.395058631896973	-59.87082290649414	-660.3718872070312	-0.0	-0.0	-0.0	-0.0	-0.0	-0.0	212929.578125	9683.98046875	-5155.48974609375
0.4895	-0.0	-0.0	-0.0	-0.0	-0.0	-0.0	-7.829286575317383	-59.9908332824707	-665.778564453125	-0.0	-0.0	-0.0	-0.0	-0.0	-0.0	213799.765625	9632.9140625	-5567.9814453125
0.49	-0.0	-0.0	-0.0	-0.0	-0.0	-0.0	-8.994112968444824	-59.517425537109375	-665.528076171875	-0.0	-0.0	-0.0	-0.0	-0.0	-0.0	214252.609375	10221.5390625	-6035.662109375
0.4905	-0.0	-0.0	-0.0	-0.0	-0.0	-0.0	-10.379161834716797	-58.67669677734375	-665.8773803710938	-0.0	-0.0	-0.0	-0.0	-0.0	-0.0	214749.3125	10842.9287109375	-6507.177734375
0.491	-0.0	-0.0	-0.0	-0.0	-0.0	-0.0	-11.952818870544434	-58.35760116577149	-666.302734375	-0.0	-0.0	-0.0	-0.0	-0.0	-0.0	214370.140625	11026.400390625	-7216.2119140625
0.4915	-0.0	-0.0	-0.0	-0.0	-0.0	-0.0	-14.070191383361816	-58.02735137939453	-663.1303100585938	-0.0	-0.0	-0.0	-0.0	-0.0	-0.0	213491.4375	11533.18359375	-7838.0322265625
0.492	-0.0	-0.0	-0.0	-0.0	-0.0	-0.0	-16.376508712768555	-57.137088775634766	-659.50146484375	-0.0	-0.0	-0.0	-0.0	-0.0	-0.0	212546.71875	11834.8095703125	-8664.66015625
0.4925	-0.0	-0.0	-0.0	-0.0	-0.0	-0.0	-18.69450569152832	-56.59083938598633	-654.5411376953125	-0.0	-0.0	-0.0	-0.0	-0.0	-0.0	210813.859375	12531.8349609375	-9531.93359375
0.493	-0.0	-0.0	-0.0	-0.0	-0.0	-0.0	-20.40348052978516	-56.16085433959961	-650.3766479492188	-0.0	-0.0	-0.0	-0.0	-0.0	-0.0	209277.453125	12889.6884765625	-10296.4765625
0.4935	-0.0	-0.0	-0.0	-0.0	-0.0	-0.0	-22.301881790161133	-55.8546257019043	-645.0692138671875	-0.0	-0.0	-0.0	-0.0	-0.0	-0.0	207408.265625	13574.5400390625	-11053.2080078125
0.494	-0.0	-0.0	-0.0	-0.0	-0.0	-0.0	-23.975706100463867	-55.76652145385742	-639.0879516601562	-0.0	-0.0	-0.0	-0.0	-0.0	-0.0	205625.515625	14003.919921875	-11766.240234375
0.4945	-0.0	-0.0	-0.0	-0.0	-0.0	-0.0	-25.74323272705078	-55.53057861328125	-633.710205078125	-0.0	-0.0	-0.0	-0.0	-0.0	-0.0	203351.375	14269.4541015625	-12147.314453125
0.495	-0.0	-0.0	-0.0	-0.0	-0.0	-0.0	-25.96358299255371	-55.3657455444336	-626.8216552734375	-0.0	-0.0	-0.0	-0.0	-0.0	-0.0	201285.75	14554.2548828125	-12572.388671875
0.4955	-0.0	-0.0	-0.0	-0.0	-0.0	-0.0	-27.37545394897461	-54.94809722900391	-621.2999877929688	-0.0	-0.0	-0.0	-0.0	-0.0	-0.0	198869.890625	14638.6103515625	-12899.5546875
0.496	-0.0	-0.0	-0.0	-0.0	-0.0	-0.0	-27.589054107666016	-54.74740219116211	-611.44384765625	-0.0	-0.0	-0.0	-0.0	-0.0	-0.0	196580.328125	14825.421875	-13165.2568359375
0.4965	-0.0	-0.0	-0.0	-0.0	-0.0	-0.0	-28.310909271240234	-54.45813751220703	-605.1276245117188	-0.0	-0.0	-0.0	-0.0	-0.0	-0.0	193994.359375	15341.8291015625	-13489.234375
0.497	-0.0	-0.0	-0.0	-0.0	-0.0	-0.0	-29.121580123901367	-54.16553115844727	-598.3497314453125	-0.0	-0.0	-0.0	-0.0	-0.0	-0.0	191651.421875	15403.611328125	-13790.41015625
0.4975	-0.0	-0.0	-0.0	-0.0	-0.0	-0.0	-29.57741355895996	-53.41025161743164	-591.5110473632812	-0.0	-0.0	-0.0	-0.0	-0.0	-0.0	189399.015625	15460.8935546875	-13806.9033203125
0.498	-0.0	-0.0	-0.0	-0.0	-0.0	-0.0	-30.07295608520508	-52.752567291259766	-585.323486328125	-0.0	-0.0	-0.0	-0.0	-0.0	-0.0	187425.75	15455.90625	-14121.0888671875
0.4985	-0.0	-0.0	-0.0	-0.0	-0.0	-0.0	-30.046085357666016	-52.07073211669922	-580.1926879882812	-0.0	-0.0	-0.0	-0.0	-0.0	-0.0	185781.734375	15554.7421875	-14145.6923828125
0.499	-0.0	-0.0	-0.0	-0.0	-0.0	-0.0	-30.60522079467773	-51.45438766479492	-575.1996459960938	-0.0	-0.0	-0.0	-0.0	-0.0	-0.0	184349.8125	15440.0498046875	-14354.248046875
0.4995	-0.0	-0.0	-0.0	-0.0	-0.0	-0.0	-30.60522079467773	-51.27763366699219	-571.1138305664062	-0.0	-0.0	-0.0	-0.0	-0.0	-0.0	183214.671875	15389.0234375	-14404.703125
0.5	-0.0	-0.0	-0.0	-0.0	-0.0	-0.0	-30.250377655029297	-50.45663833618164	-566.972900390625	-0.0	-0.0	-0.0	-0.0	-0.0	-0.0	181778.984375	15283.0673828125	-14569.7099609375
0.5005000000000001	-0.0	-0.0	-0.0	-0.0	-0.0	-0.0	-30.288671493530277	-49.9775276184082	-562.981201171875	-0.0	-0.0	-0.0	-0.0	-0.0	-0.0	180533.265625	15371.4833984375	-14472.0322265625
0.501	-0.0	-0.0	-0.0	-0.0	-0.0	-0.0	-29.69282913208008	-50.01546478271485	-560.2879638671875	-0.0	-0.0	-0.0	-0.0	-0.0	-0.0	179326.25	15511.728515625	-14306.453125
0.5015000000000001	-0.0	-0.0	-0.0	-0.0	-0.0	-0.0	-29.249168395996094	-49.25838088989258	-554.8518676757812	-0.0	-0.0	-0.0	-0.0	-0.0	-0.0	177903.59375	15194.03125	-14310.2080078125
